<svg xmlns="http://www.w3.org/2000/svg" width="479" height="463" viewBox="0 0 479 463">
    <defs>
        <linearGradient id="a" x1="39.322%" x2="73.171%" y1="42.376%" y2="67.238%">
            <stop offset="0%" stop-color="#C6CAD4" stop-opacity=".182"/>
            <stop offset="100%" stop-color="#F1F6F9" stop-opacity="0"/>
        </linearGradient>
        <linearGradient id="b" x1="40.936%" x2="44.232%" y1="46.593%" y2="104.351%">
            <stop offset="0%" stop-color="#C6CAD4"/>
            <stop offset="100%" stop-color="#F1F6F9" stop-opacity="0"/>
        </linearGradient>
        <linearGradient id="c" x1="50%" x2="50%" y1="0%" y2="98.819%">
            <stop offset="0%" stop-color="#F6F7FB"/>
            <stop offset="100%" stop-color="#E8EEF5"/>
        </linearGradient>
        <linearGradient id="d" x1="50%" x2="50%" y1="0%" y2="100%">
            <stop offset="0%" stop-color="#DDE1E9"/>
            <stop offset="100%" stop-color="#D2D7E4"/>
        </linearGradient>
    </defs>
    <g fill="none" fill-rule="evenodd">
        <path fill="url(#a)" d="M15 0h250.563l250.036 215.838v267.487l-250.036-22.538L15 241.035z"/>
        <path fill="#FFF" d="M15 0h248v243H15z"/>
        <path fill="url(#b)" d="M29 24h215v189H29z"/>
        <path fill="url(#c)" d="M14.186 128.366c7.86-6.19 13.969-18.281 13.969-55.67V0H244.12v160.978l-6.012-8.273-4.249 13.798-8.658-8.936-2.231 3.41h-17.528l-4.281 52.417c-2.89 1.575-5.516 1.575-7.875 0-3.538-2.361-7.816 2.362-10.612 2.362-2.796 0-8.375-4.86-10.9-4.86-1.682 0-4.969.833-9.86 2.498l-5.868-65.802-6.526 65.802c-3.588-1.665-6.47-2.498-8.646-2.498-3.263 0-5.714 4.86-8.439 4.86-2.725 0-8.287-4.86-12.004-4.86-3.718 0-14.221 2.498-15.427 2.498-1.207 0-3.289-2.563-4.33-2.498-1.04.065-1.258.782-5.638 3.123-.305.162-4.267-.046-11.886-.625V95.1c-2.559 29.204-8.281 48.406-17.167 57.605C52.655 166.503 6.53 170.669 0 128.365c-.014-.09 18.604-.09 55.855 0-1.193 13.778 3.013 20.667 12.62 20.667" transform="translate(0 16)"/>
        <path fill="url(#d)" d="M0 128.151h55.857c-.349 12.26 4.027 19.203 13.127 20.829 1.325.237-6.399 8.275-16.87 11.351-10.97 3.223-24.816 1.453-28.083 0C9.62 153.926 1.61 143.2 0 128.151z" transform="translate(0 16)"/>
        <path fill="#AAB5CC" d="M85.412 121v-10.706H64.909v-9.696l14.847-51.51h10.908l-15.453 51.51h10.201V80.095h10.302v20.503h4.949v9.696h-4.949V121H85.412zm34.496-57.065c0-2.424.42-4.579 1.262-6.464.842-1.885 1.97-3.501 3.384-4.848a14.557 14.557 0 0 1 4.898-3.08 16.143 16.143 0 0 1 5.808-1.061c2.02 0 3.955.353 5.807 1.06a14.557 14.557 0 0 1 4.899 3.081c1.414 1.347 2.541 2.963 3.383 4.848.842 1.885 1.263 4.04 1.263 6.464v42.218c0 2.424-.421 4.579-1.263 6.464-.842 1.885-1.97 3.501-3.383 4.848a14.557 14.557 0 0 1-4.899 3.08 16.143 16.143 0 0 1-5.807 1.061c-2.02 0-3.956-.353-5.808-1.06a14.557 14.557 0 0 1-4.898-3.081c-1.414-1.347-2.542-2.963-3.384-4.848-.842-1.885-1.262-4.04-1.262-6.464V63.935zm10.302 42.218c0 1.481.471 2.71 1.414 3.686.942.977 2.154 1.465 3.636 1.465 1.481 0 2.693-.488 3.636-1.465.942-.976 1.414-2.205 1.414-3.686V63.935c0-1.481-.472-2.71-1.414-3.687-.943-.976-2.155-1.464-3.636-1.464-1.482 0-2.694.488-3.636 1.465-.943.976-1.414 2.205-1.414 3.686v42.218zM190.36 121v-10.706h-20.504v-9.696l14.847-51.51h10.908l-15.453 51.51h10.201V80.095h10.302v20.503h4.95v9.696h-4.95V121H190.36z"/>
        <path d="M-261-81h777v640h-777z"/>
    </g>
</svg>
