<svg xmlns="http://www.w3.org/2000/svg" width="17" height="18" viewBox="0 0 17 18">
    <g fill="#FF5A60" fill-rule="evenodd">
        <path d="M8.5 17.636a.388.388 0 0 1-.166-.037L.22 13.769a.383.383 0 0 1-.22-.346V1.551c0-.132.068-.254.18-.324a.39.39 0 0 1 .372-.022L8.5 4.956l7.948-3.752a.39.39 0 0 1 .372.023c.112.07.18.192.18.324v11.872a.383.383 0 0 1-.22.346l-8.114 3.83a.388.388 0 0 1-.166.037zM.773 13.18L8.5 16.828l7.727-3.647V2.157l-7.56 3.57a.39.39 0 0 1-.333 0L.773 2.156v11.024z"/>
        <path d="M8.5 3.908L1.765.728a.382.382 0 0 1-.183-.51.39.39 0 0 1 .515-.181L8.5 3.06 14.903.037a.39.39 0 0 1 .515.181c.092.191.01.42-.183.51L8.5 3.909zM8.114 5.38h.773v11.872h-.773z"/>
    </g>
</svg>
