<?xml version="1.0" encoding="UTF-8"?>
<svg width="20px" height="18px" viewBox="0 0 20 18" version="1.1" xmlns="http://www.w3.org/2000/svg" xmlns:xlink="http://www.w3.org/1999/xlink">
    <!-- Generator: Sketch 49.1 (51147) - http://www.bohemiancoding.com/sketch -->
    <title>Group 16 Copy 5</title>
    <desc>Created with Sketch.</desc>
    <defs></defs>
    <g id="New_Maryna" stroke="none" stroke-width="1" fill="none" fill-rule="evenodd">
        <g id="Acknowledge-violation" transform="translate(-1012.000000, -883.000000)">
            <g id="Group-16-Copy-5" transform="translate(1010.000000, 879.000000)">
                <g id="Group-3-Copy-5" transform="translate(2.000000, 4.000000)" fill="#CBDCE9">
                    <path d="M2,0 L18,0 C19.1045695,1.75920346e-15 20,0.8954305 20,2 L20,12.1641406 C20,13.2687101 19.1045695,14.1641406 18,14.1641406 L10.9274956,14.1641406 L5.34523817,17.4556259 L5.34523817,14.1641406 L2,14.1641406 C0.8954305,14.1641406 4.83755345e-14,13.2687101 4.52970994e-14,12.1641406 L0,2 C-3.56896252e-15,0.8954305 0.8954305,-2.31216825e-15 2,-6.43929354e-15 Z M3.56641604,3.51879211 C3.04319891,3.51879211 2.61904762,3.9429434 2.61904762,4.46616053 C2.61904762,4.98937766 3.04319891,5.41352895 3.56641604,5.41352895 L12.1478697,5.41352895 C12.6710868,5.41352895 13.0952381,4.98937766 13.0952381,4.46616053 C13.0952381,3.9429434 12.6710868,3.51879211 12.1478697,3.51879211 L3.56641604,3.51879211 Z M3.56641604,7.60061367 C3.04319891,7.60061367 2.61904762,8.02476496 2.61904762,8.5479821 C2.61904762,9.07119923 3.04319891,9.49535052 3.56641604,9.49535052 L9.52882206,9.49535052 C10.0520392,9.49535052 10.4761905,9.07119923 10.4761905,8.5479821 C10.4761905,8.02476496 10.0520392,7.60061367 9.52882206,7.60061367 L3.56641604,7.60061367 Z" id="Combined-Shape"></path>
                </g>
                <rect id="Rectangle-31" x="0" y="0" width="24" height="24"></rect>
            </g>
        </g>
    </g>
</svg>