<svg xmlns="http://www.w3.org/2000/svg" xmlns:xlink="http://www.w3.org/1999/xlink" width="60" height="62" viewBox="0 0 60 62">
    <defs>
        <path id="a" d="M38.561 17.276l1.998.065 17.443.57A2.074 2.074 0 0 1 60 19.98v39.358a1.985 1.985 0 0 1-2.007 1.991L42.5 61.225H27.168V42.24"/>
        <mask id="b" width="32.832" height="44.054" x="0" y="0" fill="#fff">
            <use xlink:href="#a"/>
        </mask>
    </defs>
    <g fill="none" fill-rule="evenodd">
        <path fill="#FF5A60" fill-rule="nonzero" d="M34.78 18.125l.196-16.116A1.979 1.979 0 0 0 32.993 0H2.007A1.994 1.994 0 0 0 .01 2.004l.194 38.12a2.022 2.022 0 0 0 2.012 2.008l22.208.053.002-1-22.208-.053a1.022 1.022 0 0 1-1.014-1.013L1.01 1.999A.994.994 0 0 1 2.007 1h30.986c.551 0 .99.444.983.997l-.195 16.116 1 .012zm.196-16.116A1.979 1.979 0 0 0 32.993 0H2.007A1.994 1.994 0 0 0 .01 2.004l.194 38.12a2.022 2.022 0 0 0 2.012 2.008l22.208.053.002-1-22.208-.053a1.022 1.022 0 0 1-1.014-1.013L1.01 1.999A.994.994 0 0 1 2.007 1h30.986c.551 0 .99.444.983.997l-.195 16.116 1 .012.195-16.116z"/>
        <path stroke="#FF5A60" stroke-linecap="square" d="M1.5 7.5h33"/>
        <g fill="#FF5A60" transform="translate(3 3)">
            <circle cx="1" cy="1" r="1"/>
            <circle cx="5" cy="1" r="1"/>
            <circle cx="9" cy="1" r="1"/>
        </g>
        <use stroke="#FF5A60" stroke-dasharray="2" stroke-width="4" mask="url(#b)" xlink:href="#a"/>
        <path fill="#FF5A60" fill-rule="nonzero" d="M32.178 21.818c-.827-.73-1.627-1.024-2.317-.721a1.866 1.866 0 0 0-.501.333c-.8.724-1.06 1.282-.959 1.84.077.424.287.809.868 1.538.443.418.846.867 1.088 1.192.061.083.107.151.138.21.04.054.04.054.06.36-.205.37-.205.37-.56.402-.16-.042-.16-.042-.215-.078-.107-.068-.248-.215-.483-.49a41.471 41.471 0 0 1-.768-.92 9.706 9.706 0 0 0-.108-.099c-1.343-1.212-2.509-1.636-3.212-.997-.909.827-.804 1.747.204 3.101.367.493.795.973 1.524 1.736l.59.616c.172.181.318.337.452.483a17.26 17.26 0 0 1 .46.485l.06.07a.547.547 0 0 1 .07.118c.03.058.03.058.036.27-.222.407-.222.407-.565.425-.206-.07-.206-.07-.231-.096-.065-.048-.203-.194-.457-.475l-.097-.107a20.114 20.114 0 0 0-1.405-1.284c-1.855-1.537-3.367-2.156-4.061-1.517-.876.807-.829 1.712.182 3.175.89 1.286 1.965 2.396 5.641 5.952l-.695.719c-2.005-1.94-3.247-3.161-4.113-4.087v3.895c.005.115.031.334.093.622.103.483.27.966.512 1.412.68 1.25 1.807 1.987 3.557 1.987.48 0 .846.008 1.775.037 3.061.093 4.52.014 6.277-.513 2.327-.697 4.338-2.147 6.153-4.644a9.297 9.297 0 0 0 1.4-2.8c.814-2.706.368-5.632-.882-8.485a17.323 17.323 0 0 0-.888-1.754c-.18-.309-.318-.524-.342-.57L36.45 19.04a1.868 1.868 0 0 0-.356-.265c-.735-.436-1.516-.416-2.373.396-.084.08-.16.16-.227.24-.589.708-.54 1.441-.083 2.185.03.049.059.094.088.136.167.195.258.311.31.382l-.757.649a3.157 3.157 0 0 1-.342-.413 6.246 6.246 0 0 0-.533-.532zm.549-3.046c.092-.112.195-.22.307-.327 1.21-1.147 2.478-1.18 3.572-.53.26.155.449.311.562.427l4.06 4.183c.09.13.243.368.437.701.32.551.64 1.174.94 1.856 1.337 3.05 1.818 6.204.923 9.174a10.296 10.296 0 0 1-1.548 3.1c-1.943 2.672-4.135 4.253-6.675 5.014-1.892.567-3.43.651-6.595.554a52.458 52.458 0 0 0-1.744-.036c-2.134 0-3.588-.95-4.435-2.51a6.262 6.262 0 0 1-.612-1.68 5.106 5.106 0 0 1-.115-.807v-4.924h.11c-.29-.35-.532-.673-.765-1.01-1.265-1.83-1.341-3.279-.038-4.48.78-.718 1.814-.683 3.028-.1-.823-1.418-.78-2.657.397-3.729.819-.745 1.813-.734 2.881-.198-.171-.946.239-1.826 1.272-2.761.244-.221.501-.39.771-.509.866-.379 1.745-.22 2.596.301.004-.576.21-1.156.67-1.71z"/>
    </g>
</svg>
