<svg xmlns="http://www.w3.org/2000/svg" xmlns:xlink="http://www.w3.org/1999/xlink" width="246" height="162" viewBox="0 0 246 162">
    <defs>
        <path id="a" d="M96 44.4h14.4v20.558a1.2 1.2 0 0 1-1.866.998L103.2 62.4l-5.334 3.556A1.2 1.2 0 0 1 96 64.958V44.4z"/>
    </defs>
    <g fill="none" fill-rule="evenodd">
        <g transform="rotate(24 63.995 361.179)">
            <rect width="32.4" height="22.8" stroke="#FDE5D8" stroke-linecap="round" stroke-linejoin="round" stroke-width="1.2" rx="3.6"/>
            <circle cx="7.8" cy="7.8" r="3" fill="#FDA67B"/>
            <path fill="#FDE5D8" d="M10.338 17.46h16.595a1.2 1.2 0 0 0 .964-1.916l-4.96-6.676a1.2 1.2 0 0 0-1.866-.074l-3.712 4.244a1.2 1.2 0 0 1-1.805.002l-1.527-1.738a1.2 1.2 0 0 0-1.899.125L9.34 15.592a1.2 1.2 0 0 0 .998 1.868z"/>
        </g>
        <rect width="138" height="86.4" x="54" y="50.4" stroke="#EAF3F7" stroke-width="2.4" rx="3.6"/>
        <rect width="73.2" height="96" x="123.6" y="45.6" stroke="#EAF3F7" stroke-width="2.4" rx="3.96"/>
        <rect width="51.6" height="24" x="132" y="62.4" stroke="#EAF3F7" stroke-width="2.4" rx="3.96"/>
        <rect width="73.2" height="96" x="49.2" y="45.6" stroke="#EAF3F7" stroke-width="2.4" rx="3.96"/>
        <path stroke="#EAF3F7" stroke-linecap="round" stroke-linejoin="round" stroke-width="2.4" d="M62.4 63.6h19.2M62.4 82.8h19.2M62.4 112.8h19.2M132 112.8h51.004"/>
        <path stroke="#DCEAF0" stroke-linecap="round" stroke-linejoin="round" stroke-width="2.4" d="M62.4 73.2h31.2M62.4 92.4h31.2M62.4 103.2h31.2M132 103.2h51.004M62.4 122.4h31.2M132 122.4h31.2"/>
        <use fill="#FFF" xlink:href="#a"/>
        <path stroke="#FF4D65" stroke-width="2.4" d="M97.2 45.6v19.358l6-4 6 4V45.6h-12z"/>
        <path fill="#FEE8DC" d="M3.394 120l3.394 3.394-3.394 3.394L0 123.394z"/>
        <path fill="#E0DAF0" d="M73.058 22.8l1.16 4.657-4.657 1.161-1.16-4.657zM244.658 120l1.16 4.657-4.657 1.161-1.16-4.657zM229.058 28.8l1.16 4.657-4.657 1.161-1.16-4.657z"/>
        <path fill="#FEE8DC" d="M117.151 0l4.74.751-.75 4.74-4.74-.75z"/>
        <circle cx="92.182" cy="16.277" r="9" stroke="#E0DAF0" stroke-width="1.2" transform="rotate(-29 92.182 16.277)"/>
        <circle cx="92.182" cy="16.277" r="5.4" stroke="#E0DAF0" stroke-width="1.2" transform="rotate(-29 92.182 16.277)"/>
        <path stroke="#E0DAF0" stroke-width="1.2" d="M98.12 23.276l-3.149 1.745 4.363 7.872a1.8 1.8 0 0 0 3.149-1.745l-4.363-7.872z"/>
        <path stroke="#E0DAF0" stroke-linecap="round" stroke-linejoin="round" stroke-width="1.2" d="M91.6 15.228l4.198-2.328M93.813 16.745L96.962 15"/>
        <path stroke="#FDE5D8" stroke-width="1.2" d="M21.864 15.516l6.186 1.905"/>
        <path stroke="#FDE5D8" stroke-linecap="round" stroke-linejoin="round" stroke-width="1.2" d="M21.819 15.704l4.762-4.812 1.246 6.293-6.008 22.573-6.154-1.772z"/>
        <path stroke="#FDA67B" stroke-linecap="round" stroke-linejoin="round" stroke-width="1.2" d="M23.786 20.262L19.64 35.508"/>
        <g stroke-linecap="round" stroke-linejoin="round" stroke-width="1.2" transform="rotate(-39 224.567 -252.263)">
            <path stroke="#FDE5D8" d="M4.8 19.2V1.8a1.8 1.8 0 0 1 3.6 0v17.4"/>
            <rect width="13.2" height="2.4" y="19.2" stroke="#FDE5D8" rx="1.2"/>
            <path stroke="#FDE5D8" d="M2.4 21.6h8.4V30a2.4 2.4 0 0 1-2.4 2.4H4.8A2.4 2.4 0 0 1 2.4 30v-8.4z"/>
            <path stroke="#FDA67B" d="M5.4 23.4v4.8M7.8 23.4v4.8"/>
        </g>
        <ellipse cx="123" cy="159" fill="#EAF3F7" opacity=".432" rx="75" ry="3"/>
        <g>
            <g transform="translate(18 85.2)">
                <path fill="#E0DAF0" fill-rule="nonzero" d="M15.955 6.656l-1.608-.322a6.352 6.352 0 0 0-.282-.677l.911-1.367a1.05 1.05 0 0 0-.131-1.325l-1.01-1.01a1.048 1.048 0 0 0-1.325-.131l-1.367.91c-.22-.105-.445-.2-.678-.28l-.322-1.61A1.05 1.05 0 0 0 9.113 0H7.685c-.5 0-.93.353-1.029.844l-.322 1.61c-.233.08-.459.175-.677.28l-1.367-.91a1.047 1.047 0 0 0-1.325.131l-1.01 1.01a1.05 1.05 0 0 0-.13 1.325l.91 1.367c-.106.219-.2.445-.281.677l-1.61.322A1.05 1.05 0 0 0 0 7.686v1.428c0 .5.353.932.844 1.03l1.61.322c.08.233.175.459.28.677l-.91 1.367a1.05 1.05 0 0 0 .132 1.325l1.01 1.01a1.048 1.048 0 0 0 1.324.131l1.367-.911c.22.106.445.2.678.282l.321 1.608c.099.492.53.845 1.03.845h1.428c.5 0 .932-.354 1.03-.845l.322-1.608c.233-.081.459-.177.677-.282l1.367.911a1.05 1.05 0 0 0 1.325-.131l1.01-1.01a1.05 1.05 0 0 0 .131-1.325l-.911-1.367c.106-.22.2-.445.282-.678l1.608-.322c.491-.097.845-.529.845-1.03V7.687c0-.5-.354-.932-.845-1.03zm-1.815 2.78a1.048 1.048 0 0 0-.785.685 5.331 5.331 0 0 1-.235.564c-.163.336-.135.731.071 1.04l.912 1.368-1.01 1.01-1.368-.911a1.048 1.048 0 0 0-1.04-.072c-.182.088-.37.168-.564.235-.35.122-.611.42-.684.786l-.323 1.61H7.686l-.322-1.61a1.049 1.049 0 0 0-.684-.786 5.34 5.34 0 0 1-.565-.234 1.04 1.04 0 0 0-1.04.07l-1.367.912-1.01-1.01.91-1.367c.207-.31.234-.706.073-1.04a5.306 5.306 0 0 1-.235-.565 1.05 1.05 0 0 0-.786-.684l-1.609-.323-.001-1.428 1.61-.322a1.05 1.05 0 0 0 .785-.685c.068-.193.146-.382.235-.564.162-.335.135-.731-.072-1.04l-.91-1.367 1.01-1.01 1.367.91a1.048 1.048 0 0 0 1.04.072c.181-.088.37-.167.564-.235a1.05 1.05 0 0 0 .684-.785l.322-1.61h1.428l.322 1.61c.073.364.334.663.685.785.194.068.382.146.564.235a1.049 1.049 0 0 0 1.04-.072l1.368-.91 1.01 1.01-.911 1.367c-.207.31-.233.705-.072 1.04a5.3 5.3 0 0 1 .235.564c.122.351.421.611.786.684l1.608.323.002 1.428-1.61.322z"/>
                <circle cx="8.4" cy="8.4" r="2.52" stroke="#E0DAF0" stroke-width="1.2"/>
            </g>
        </g>
    </g>
</svg>
