<?xml version="1.0" encoding="UTF-8"?>
<svg width="5px" height="15px" viewBox="0 0 5 15" version="1.1" xmlns="http://www.w3.org/2000/svg" xmlns:xlink="http://www.w3.org/1999/xlink">
    <!-- Generator: Sketch 50 (54983) - http://www.bohemiancoding.com/sketch -->
    <title>if_info-alt_383122</title>
    <desc>Created with Sketch.</desc>
    <defs></defs>
    <g id="Page-1" stroke="none" stroke-width="1" fill="none" fill-rule="evenodd">
        <g id="Errors" transform="translate(-393.000000, -662.000000)" fill="#FF5A60" fill-rule="nonzero">
            <g id="if_info-alt_383122" transform="translate(393.000000, 662.000000)">
                <path d="M2.44263529,13.9310706 C2.44263529,13.9310706 1.90903529,14.2858118 1.54428235,14.2841882 C1.51181176,14.2990706 1.4926,14.3077294 1.4926,14.3077294 L1.49341176,14.2841882 C1.41683529,14.2806706 1.33971765,14.2698471 1.26205882,14.2503647 L1.14678824,14.2219529 C0.509823529,14.0639294 0.172670588,13.4323765 0.331235294,12.7956824 L1.21795294,9.22094118 L1.61815294,7.60634118 C1.99048235,6.10728235 0.437576471,7.92509412 0.119094118,7.23455294 C-0.0911529412,6.77807059 1.327,5.82018824 2.36308235,5.09798824 C2.36308235,5.09798824 2.89614118,4.74378824 3.26116471,4.74514118 C3.29390588,4.72998824 3.31311765,4.7216 3.31311765,4.7216 L3.31176471,4.74514118 C3.38888235,4.74865882 3.466,4.75948235 3.54365882,4.77869412 L3.65892941,4.80737647 C4.29589412,4.9654 4.68391765,5.60967059 4.52589412,6.24636471 L3.63944706,9.82137647 L3.23843529,11.4359765 C2.86664706,12.9350353 4.39384706,11.1101882 4.71205882,11.8015412 C4.92230588,12.2574824 3.47844706,13.2088706 2.44263529,13.9310706 Z M4.69014118,2.7574 C4.4688,3.64898824 3.56665882,4.1926 2.67534118,3.97125882 C1.78348235,3.74991765 1.23987059,2.84804706 1.46121176,1.95618824 C1.68255294,1.06432941 2.58469412,0.520988235 3.47601176,0.742329412 C4.36787059,0.9634 4.91121176,1.86554118 4.69014118,2.7574 Z" id="Shape"></path>
            </g>
        </g>
    </g>
</svg>