<svg xmlns="http://www.w3.org/2000/svg" width="14" height="14" viewBox="0 0 14 14">
    <g fill="none" fill-rule="evenodd">
        <circle cx="7" cy="7" r="7" fill="#D3D3D3"/>
        <path fill="#FFF" d="M6.581 8.78c.004-.524.05-.887.136-1.09.086-.202.314-.469.682-.801.358-.423.612-.747.764-.975a1.45 1.45 0 0 0 .227-.823c0-.383-.102-.677-.306-.883-.204-.206-.495-.309-.874-.309-.329 0-.609.09-.84.268-.231.179-.347.442-.347.788H5.005l-.016-.032c-.01-.582.194-1.047.615-1.398C6.024 3.175 6.56 3 7.21 3c.711 0 1.263.181 1.657.544.394.363.59.87.59 1.52 0 .465-.127.892-.381 1.278a7.134 7.134 0 0 1-1.01 1.186c-.196.195-.314.37-.355.525-.042.156-.063.398-.063.726H6.581zM7.686 11H6.57V9.873h1.116V11z"/>
    </g>
</svg>
