<svg xmlns="http://www.w3.org/2000/svg" xmlns:xlink="http://www.w3.org/1999/xlink" width="16" height="19" viewBox="0 0 16 19">
    <defs>
        <path id="a" d="M0 2h16v1H0z"/>
        <mask id="b" width="16" height="1" x="0" y="0" fill="#fff">
            <use xlink:href="#a"/>
        </mask>
    </defs>
    <g fill="none" fill-rule="evenodd">
        <g>
            <use stroke="#FF5465" stroke-width="2" mask="url(#b)" xlink:href="#a"/>
            <path fill="#FF5465" d="M1.512 2.02L1.5 15.642a2.504 2.504 0 0 0 2.505 2.503l7.975-.001a2.506 2.506 0 0 0 2.508-2.505L14.5 2h-1l-.012 13.639c0 .834-.675 1.506-1.509 1.506l-7.975.001c-.83 0-1.505-.673-1.504-1.502L2.489 2l-.977.02z"/>
            <path fill="#FF5465" d="M4.5 6.034v7.962h1V6.034zM7.5 6.034v7.962h1V6.034zM10.5 6.034v7.962h1V6.034zM5.5 2.911v-.933a.48.48 0 0 1 .488-.478h4.092c.27 0 .486.215.486.485l-.003.987 1 .002.003-.986A1.482 1.482 0 0 0 10.08.5H5.988A1.48 1.48 0 0 0 4.5 1.978v.933h1z"/>
        </g>
    </g>
</svg>
