<svg id="Layer_1" data-name="Layer 1" xmlns="http://www.w3.org/2000/svg" viewBox="0 0 36 36"><defs><style>.cls-1{fill:#fff;stroke:#9b9b9b;stroke-miterlimit:10;stroke-width:2px;}.cls-2{fill:#9b9b9b;fill-rule:evenodd;}</style></defs><title>instagram</title><circle class="cls-1" cx="18" cy="18" r="17"/><path class="cls-2" d="M11.93,9.84H24.07a2.1,2.1,0,0,1,2.09,2.09V24.06a2.1,2.1,0,0,1-2.09,2.1H11.93a2.1,2.1,0,0,1-2.09-2.1V11.93A2.1,2.1,0,0,1,11.93,9.84Zm9.79,1.81a0.74,0.74,0,0,0-.73.74v1.76a0.74,0.74,0,0,0,.73.74h1.84a0.74,0.74,0,0,0,.74-0.74V12.39a0.74,0.74,0,0,0-.74-0.74H21.73Zm2.59,5.09H22.88a4.78,4.78,0,0,1,.21,1.4,5.08,5.08,0,0,1-10.15,0,4.74,4.74,0,0,1,.21-1.4h-1.5v6.89a0.65,0.65,0,0,0,.65.65H23.67a0.65,0.65,0,0,0,.65-0.65V16.74Zm-6.3-2A3.18,3.18,0,1,0,21.29,18,3.23,3.23,0,0,0,18,14.79Z"/></svg>