<svg xmlns="http://www.w3.org/2000/svg" width="56" height="56" viewBox="0 0 56 56">
    <defs>
        <filter id="a" width="200%" height="200%" x="-50%" y="-50%" filterUnits="objectBoundingBox">
            <feOffset dy="2" in="SourceAlpha" result="shadowOffsetOuter1"/>
            <feGaussianBlur in="shadowOffsetOuter1" result="shadowBlurOuter1" stdDeviation="3"/>
            <feColorMatrix in="shadowBlurOuter1" result="shadowMatrixOuter1" values="0 0 0 0 0.858823529 0 0 0 0 0.294117647 0 0 0 0 0.250980392 0 0 0 0.321105072 0"/>
            <feMerge>
                <feMergeNode in="shadowMatrixOuter1"/>
                <feMergeNode in="SourceGraphic"/>
            </feMerge>
        </filter>
    </defs>
    <g fill="none" fill-rule="evenodd" filter="url(#a)" transform="translate(6 4)">
        <rect width="44" height="44" fill="#DB4B40" rx="22"/>
        <g fill="#FFF">
            <path d="M21.564 12.947c.166.102.35.252.556.449a5.07 5.07 0 0 1 1.063 1.755c.115.384.172.833.172 1.345-.014.94-.222 1.69-.621 2.256a7.036 7.036 0 0 1-.621.756c-.242.23-.5.465-.773.704a3.6 3.6 0 0 0-.433.551c-.157.214-.235.46-.235.743 0 .275.08.5.241.68.136.17.269.32.397.448l.89.73c.552.455 1.037.952 1.454 1.5.392.555.597 1.281.614 2.177 0 1.273-.562 2.4-1.684 3.383-1.163 1.018-2.842 1.543-5.037 1.576-1.837-.017-3.208-.41-4.114-1.176-.913-.716-1.371-1.573-1.371-2.57 0-.485.148-1.028.447-1.625.288-.596.81-1.121 1.567-1.573a8.18 8.18 0 0 1 2.676-.972c.926-.136 1.694-.213 2.306-.23a5.658 5.658 0 0 1-.505-.798c-.173-.275-.258-.607-.258-.992 0-.232.032-.426.098-.58.057-.164.111-.313.16-.45a7.495 7.495 0 0 1-.842.05c-1.397-.017-2.46-.457-3.192-1.32-.767-.803-1.15-1.738-1.15-2.806 0-1.29.542-2.46 1.628-3.51.745-.615 1.52-1.015 2.323-1.205.795-.162 1.541-.243 2.236-.243h5.245l-1.62.947h-1.617zm1.013 15.12a2.56 2.56 0 0 0-.65-1.742c-.46-.47-1.178-1.046-2.155-1.73a5.663 5.663 0 0 0-.589-.026c-.134-.017-.476 0-1.027.051-.542.077-1.098.201-1.666.372-.134.05-.321.128-.563.23-.242.111-.489.27-.74.475a2.764 2.764 0 0 0-.613.794c-.192.334-.287.736-.287 1.205 0 .923.416 1.683 1.251 2.282.794.597 1.879.904 3.257.922 1.236-.018 2.18-.29 2.83-.82.634-.522.952-1.191.952-2.012zm-3.656-7.7c.69-.025 1.266-.274 1.725-.745.223-.334.365-.676.429-1.027.037-.351.057-.646.057-.886 0-1.035-.265-2.08-.793-3.132a3.494 3.494 0 0 0-.98-1.233 2.515 2.515 0 0 0-1.425-.474c-.711.016-1.301.303-1.773.86a3.23 3.23 0 0 0-.57 1.951c0 .95.277 1.938.833 2.966.269.479.615.885 1.04 1.22.425.334.91.5 1.457.5zM32.951 16.826H30.2V14.07h-1.333v2.757h-2.751v1.335h2.751v2.756H30.2v-2.756h2.752z"/>
        </g>
    </g>
</svg>
