<svg id="Layer_1" data-name="Layer 1" xmlns="http://www.w3.org/2000/svg" viewBox="0 0 244.022 59.086"><defs><style>.cls-1{fill:#f54d63;}</style></defs><title>logo</title><path class="cls-1" d="M9.2,49.1l5.2,0.732a1.889,1.889,0,0,0,2.109-1.588L22.827,3.329a1.794,1.794,0,0,0-.365-1.378,1.8,1.8,0,0,0-1.224-.731l-5.2-.732a1.8,1.8,0,0,0-1.379.365,1.793,1.793,0,0,0-.73,1.224L7.611,46.991A1.888,1.888,0,0,0,9.2,49.1Z"/><path class="cls-1" d="M25.654,9.057l5.887,0.828A1.891,1.891,0,0,0,33.651,8.3L34.4,2.956a1.794,1.794,0,0,0-.365-1.378A1.8,1.8,0,0,0,32.813.847l-5.887-.828a1.8,1.8,0,0,0-1.379.365,1.793,1.793,0,0,0-.73,1.224l-0.751,5.34A1.889,1.889,0,0,0,25.654,9.057Z"/><path class="cls-1" d="M19.208,47.948a1.793,1.793,0,0,0,1.225.73l5.2,0.732a1.889,1.889,0,0,0,2.109-1.588l4.486-31.9a1.889,1.889,0,0,0-1.589-2.109l-5.2-.732a1.887,1.887,0,0,0-2.109,1.589l-4.486,31.9A1.79,1.79,0,0,0,19.208,47.948Z"/><path class="cls-1" d="M102.7,18.094a16.422,16.422,0,0,0-5.358-3.8,16.92,16.92,0,0,0-7.018-1.417,16.547,16.547,0,0,0-7.018,1.452A15.874,15.874,0,0,0,77.953,18.3a17.544,17.544,0,0,0-3.388,5.945,22.3,22.3,0,0,0-1.176,7.295,23.169,23.169,0,0,0,1.176,7.57,17.165,17.165,0,0,0,3.388,5.911,14.94,14.94,0,0,0,5.358,3.838,17.643,17.643,0,0,0,7.018,1.348,20.443,20.443,0,0,0,6.811-1.037,19.455,19.455,0,0,0,4.943-2.488,11.889,11.889,0,0,0,3.007-2.974,5.689,5.689,0,0,0,1.072-2.489,1.546,1.546,0,0,0-.519-1.313,1.916,1.916,0,0,0-1.349-.553H98.763a3.415,3.415,0,0,0-1.313.207,6.964,6.964,0,0,0-1.244.761,7.531,7.531,0,0,1-2.282,1.141,11.857,11.857,0,0,1-3.595.449,10.769,10.769,0,0,1-2.973-.414A7.778,7.778,0,0,1,84.8,40.253a6.238,6.238,0,0,1-1.763-2.039,5.77,5.77,0,0,1-.657-2.8H105.47a1.888,1.888,0,0,0,1.866-1.866V30.436a18.981,18.981,0,0,0-1.21-6.741A16.889,16.889,0,0,0,102.7,18.094ZM82.377,27.531a7.759,7.759,0,0,1,.657-2.178,6.732,6.732,0,0,1,1.486-2.074,7.547,7.547,0,0,1,2.385-1.521,8.927,8.927,0,0,1,3.423-.588,9.571,9.571,0,0,1,3.63.588,6.4,6.4,0,0,1,2.281,1.521,5.675,5.675,0,0,1,1.245,2.074A12.13,12.13,0,0,1,98,27.531H82.377Z"/><path class="cls-1" d="M132.572,13.565H129.46a13.47,13.47,0,0,0-5.358.9,13.945,13.945,0,0,0-3.837,2.559v-1.59a1.889,1.889,0,0,0-1.867-1.867h-5.254a1.888,1.888,0,0,0-1.867,1.867V47.651a1.888,1.888,0,0,0,1.867,1.866H118.4a1.889,1.889,0,0,0,1.867-1.866V29.675q0-4.148,1.832-5.98t5.98-1.832h4.494A1.891,1.891,0,0,0,134.439,20V15.433A1.889,1.889,0,0,0,132.572,13.565Z"/><path class="cls-1" d="M170.149,23a17.284,17.284,0,0,0-3.111-5.186,14.82,14.82,0,0,0-4.771-3.595,14.233,14.233,0,0,0-6.258-1.349,16.185,16.185,0,0,0-3.837.415,14.866,14.866,0,0,0-2.973,1.037,11.346,11.346,0,0,0-2.178,1.348,12.208,12.208,0,0,0-1.452,1.349V2.3a1.794,1.794,0,0,0-.554-1.313A1.8,1.8,0,0,0,143.7.429h-5.254a1.8,1.8,0,0,0-1.314.554,1.793,1.793,0,0,0-.553,1.313V47.651a1.888,1.888,0,0,0,1.867,1.866H143.7a1.889,1.889,0,0,0,1.867-1.866V46.061a12.208,12.208,0,0,0,1.452,1.349,11.3,11.3,0,0,0,2.178,1.348,14.866,14.866,0,0,0,2.973,1.037,16.135,16.135,0,0,0,3.837.415,14.247,14.247,0,0,0,6.258-1.348,14.823,14.823,0,0,0,4.771-3.6,17.248,17.248,0,0,0,3.111-5.186,19.083,19.083,0,0,0,1.278-6.118q0.069-1.037.069-2.42t-0.069-2.42A19.1,19.1,0,0,0,170.149,23ZM162.44,33.478q-0.415,4.5-2.766,6.465a8.636,8.636,0,0,1-5.739,1.97,8.4,8.4,0,0,1-5.7-2,8.24,8.24,0,0,1-2.662-5.738,20.377,20.377,0,0,1-.139-2.627,20.393,20.393,0,0,1,.139-2.628,8.36,8.36,0,0,1,2.662-5.669,8.235,8.235,0,0,1,5.7-2.074,8.632,8.632,0,0,1,5.739,1.971q2.35,1.97,2.766,6.464A18.2,18.2,0,0,1,162.44,33.478Z"/><path class="cls-1" d="M203.3,18.094a16.422,16.422,0,0,0-5.358-3.8,16.92,16.92,0,0,0-7.018-1.417,16.547,16.547,0,0,0-7.018,1.452,15.874,15.874,0,0,0-5.358,3.976,17.544,17.544,0,0,0-3.388,5.945,22.3,22.3,0,0,0-1.176,7.295,23.169,23.169,0,0,0,1.176,7.57,17.165,17.165,0,0,0,3.388,5.911,14.94,14.94,0,0,0,5.358,3.838,17.643,17.643,0,0,0,7.018,1.348,20.443,20.443,0,0,0,6.811-1.037,19.455,19.455,0,0,0,4.943-2.488,11.889,11.889,0,0,0,3.007-2.974,5.689,5.689,0,0,0,1.072-2.489,1.546,1.546,0,0,0-.519-1.313,1.916,1.916,0,0,0-1.349-.553h-5.531a3.415,3.415,0,0,0-1.313.207,6.964,6.964,0,0,0-1.244.761,7.531,7.531,0,0,1-2.282,1.141,11.857,11.857,0,0,1-3.595.449,10.769,10.769,0,0,1-2.973-.414,7.778,7.778,0,0,1-2.559-1.245,6.238,6.238,0,0,1-1.763-2.039,5.77,5.77,0,0,1-.657-2.8h23.093a1.888,1.888,0,0,0,1.866-1.866V30.436a18.981,18.981,0,0,0-1.21-6.741A16.889,16.889,0,0,0,203.3,18.094Zm-20.327,9.438a7.759,7.759,0,0,1,.657-2.178,6.732,6.732,0,0,1,1.486-2.074,7.547,7.547,0,0,1,2.385-1.521,8.927,8.927,0,0,1,3.423-.588,9.571,9.571,0,0,1,3.63.588,6.4,6.4,0,0,1,2.281,1.521,5.675,5.675,0,0,1,1.245,2.074,12.13,12.13,0,0,1,.519,2.178H182.973Z"/><path class="cls-1" d="M242.812,23.694a16.889,16.889,0,0,0-3.422-5.6,16.422,16.422,0,0,0-5.358-3.8,16.92,16.92,0,0,0-7.018-1.417A16.547,16.547,0,0,0,220,14.326a15.874,15.874,0,0,0-5.358,3.976,17.544,17.544,0,0,0-3.388,5.945,22.3,22.3,0,0,0-1.176,7.295,23.169,23.169,0,0,0,1.176,7.57,17.165,17.165,0,0,0,3.388,5.911A14.94,14.94,0,0,0,220,48.861a17.643,17.643,0,0,0,7.018,1.348,20.443,20.443,0,0,0,6.811-1.037,19.455,19.455,0,0,0,4.943-2.488,11.889,11.889,0,0,0,3.007-2.974,5.689,5.689,0,0,0,1.072-2.489,1.546,1.546,0,0,0-.519-1.313,1.916,1.916,0,0,0-1.349-.553h-5.531a3.415,3.415,0,0,0-1.313.207,6.964,6.964,0,0,0-1.244.761,7.531,7.531,0,0,1-2.282,1.141,11.857,11.857,0,0,1-3.595.449,10.769,10.769,0,0,1-2.973-.414,7.778,7.778,0,0,1-2.559-1.245,6.238,6.238,0,0,1-1.763-2.039,5.77,5.77,0,0,1-.657-2.8h23.093a1.888,1.888,0,0,0,1.866-1.866V30.436A18.981,18.981,0,0,0,242.812,23.694Zm-23.749,3.837a7.759,7.759,0,0,1,.657-2.178,6.732,6.732,0,0,1,1.486-2.074,7.547,7.547,0,0,1,2.385-1.521,8.927,8.927,0,0,1,3.423-.588,9.571,9.571,0,0,1,3.63.588,6.4,6.4,0,0,1,2.281,1.521,5.675,5.675,0,0,1,1.245,2.074,12.13,12.13,0,0,1,.519,2.178H219.063Z"/><path class="cls-1" d="M69.553,23a17.278,17.278,0,0,0-3.111-5.186,14.822,14.822,0,0,0-4.771-3.6,14.24,14.24,0,0,0-6.258-1.348,16.187,16.187,0,0,0-3.837.415A14.928,14.928,0,0,0,48.6,14.325a11.322,11.322,0,0,0-2.178,1.348,12.249,12.249,0,0,0-1.452,1.348V2.3A1.8,1.8,0,0,0,44.42.982,1.8,1.8,0,0,0,43.107.428H37.853a1.8,1.8,0,0,0-1.314.553A1.8,1.8,0,0,0,35.986,2.3V47.651a1.889,1.889,0,0,0,1.867,1.867h5.254a1.891,1.891,0,0,0,1.867-1.867v-1.59a12.128,12.128,0,0,0,1.452,1.348A11.3,11.3,0,0,0,48.6,48.757a14.866,14.866,0,0,0,2.973,1.037,16.185,16.185,0,0,0,3.837.415,14.233,14.233,0,0,0,6.258-1.349,14.806,14.806,0,0,0,4.771-3.595,17.272,17.272,0,0,0,3.111-5.186,19.089,19.089,0,0,0,1.278-6.119q0.069-1.037.069-2.42t-0.069-2.42A19.1,19.1,0,0,0,69.553,23ZM61.844,33.478q-0.415,4.494-2.766,6.464a8.637,8.637,0,0,1-5.739,1.971,8.4,8.4,0,0,1-5.7-2,8.243,8.243,0,0,1-2.662-5.738,20.393,20.393,0,0,1-.139-2.628,20.39,20.39,0,0,1,.139-2.627,8.36,8.36,0,0,1,2.662-5.669,8.235,8.235,0,0,1,5.7-2.074,8.634,8.634,0,0,1,5.739,1.971q2.35,1.97,2.766,6.464A18.2,18.2,0,0,1,61.844,33.478Z"/><path class="cls-1" d="M36.216,52.193H1.432a1.373,1.373,0,0,0-1.007.424A1.374,1.374,0,0,0,0,53.625v4.029a1.373,1.373,0,0,0,.425,1.007,1.374,1.374,0,0,0,1.007.425H36.216a1.45,1.45,0,0,0,1.432-1.432V53.625A1.448,1.448,0,0,0,36.216,52.193Z"/></svg>